<svg width="1080" height="1080" viewBox="0 0 1080 1080" fill="none" xmlns="http://www.w3.org/2000/svg">
<g filter="url(#filter0_d_1_8)">
<path d="M864 0H216C96.7065 0 0 96.7065 0 216V864C0 983.294 96.7065 1080 216 1080H864C983.294 1080 1080 983.294 1080 864V216C1080 96.7065 983.294 0 864 0Z" fill="url(#paint0_radial_1_8)" stroke="#734830" stroke-width="2"/>
<path d="M458.584 171.51C457.667 175.51 494.251 197.093 487.084 236.76V243.26C453.834 249.76 426.5 255.177 405.084 259.594L380.167 262.844C380.133 265.011 381.334 269.344 383.667 275.844C386.076 278.011 390.834 282.344 398.001 288.927C422.493 298.54 449.101 308.427 476.417 308.427L487.107 308.451V334.53C470.466 338.877 478.084 334.341 430.084 350.844C382.309 367.195 253.076 388.724 166.186 412.767C163.518 416.208 166.186 419.287 166.186 419.287L223.238 464.925C239.543 464.355 240.472 463.568 251.764 458.406C261.273 451.886 277.913 445.366 301.686 438.846L487.107 380.168V412.767C445.228 431.466 398.77 435.815 355.172 448.595L337.343 451.885V458.406C379.262 495.629 429.864 482.709 479.975 471.429V477.965C458.377 500.228 434.576 511.913 405.093 520.343C392.251 524.264 377.069 521.952 365.87 523.602C340.157 527.394 372.879 554.018 387.264 565.981L401.527 575.761C410.304 579.346 444.081 568.347 465.751 562.68L479.975 556.201C454.86 614.85 364.005 625.764 305.25 631.18C288.643 632.128 279.102 633.353 276.725 637.698L273.167 640.931V647.514C293.834 668.264 338.917 685.514 358.75 676.847L401.5 660.517C387.25 680.076 378.944 696.376 376.584 709.415C372.334 762.612 420.997 872.342 430.084 875.683C438.25 878.669 523.836 851.975 572.667 849.599C589.917 868.571 609.612 914.236 615.501 914.767C638.667 916.956 648.174 903.307 661.83 891.933C701.084 853.351 711.336 799.149 740.278 755.015C748.585 742.002 755.983 730.814 758.107 715.935C755.417 674.262 719.949 642.71 676.093 637.68C590.001 629.36 498.607 656.848 426.488 699.636L415.791 706.181L408.667 706.154C415.79 684.421 420.545 671.382 422.917 667.012L430.084 653.996C520.953 627.968 570.141 604.345 708.168 601.845H758.084L765.251 595.318C763.21 572.222 741.843 557.605 718.883 552.928L541.167 571.126C548.913 553.083 556.045 545.333 558.418 543.178C563.168 536.64 571.496 532.294 583.383 530.121C618.418 517.129 657.101 514.782 693.922 507.302L701.084 504.042C699.239 487.235 693.585 478.701 676.084 474.677C654.001 469.19 630.704 471.584 608.343 474.704L586.917 477.929C610.084 454.368 639.694 437.836 668.962 422.511C668.928 422.546 675.695 416.455 671.236 407.511C666.749 398.526 662.014 395.877 651.131 386.678C655.916 377.995 660.639 371.475 665.394 367.094C725.416 328.169 797.609 328.864 886.474 350.844C901 355.908 905.892 355.896 915 347.594C900.25 287.378 808.533 288.919 758.105 305.177C749.5 306.569 741.97 308.451 733.145 308.427H722.416C730 296.957 730.317 287.657 726.013 275.843C691.833 229.949 633.144 219.747 576.25 226.954L565.583 230.176C563.687 217.857 578.443 202.176 572.666 197.592C542.832 173.926 473.416 164.675 469.249 165.009C464.999 165.343 459.5 167.592 458.584 171.51ZM558.418 288.927C575.062 273.68 584.584 266.094 586.917 266.094C605.286 254.866 624.334 253.427 640.418 266.094L644.001 269.333C643.844 283.177 639.001 296.261 633.334 308.427L629.751 314.971C601.211 317.179 581.001 320.428 569.084 324.761L551.251 328.011L558.334 288.927H558.418ZM608.334 354.095C599.001 372.428 585.167 379.845 563.418 389.928L551.251 393.178V367.095L608.334 354.095ZM665.418 680.098C701.668 709.598 652.667 787.182 622.584 830.016C613.667 850.766 601.001 836.266 586.917 826.766C567.418 814.933 546.751 817.432 522.751 823.516C549.667 787.682 544.834 775.182 585.667 771.432C625.501 767.766 603.501 750.765 595.251 745.932C587.251 741.265 458.501 751.932 451.417 755.015C427.584 771.599 481.334 783.015 494.251 784.349L501.334 790.932L451.417 830.016H444.334C423.834 811.682 425.667 778.099 422.917 751.765C421.418 732.848 442.5 725.848 458.584 719.181C469.001 714.432 480.584 710.348 494.251 706.181C534.167 700.431 653.584 670.431 665.418 680.098Z" fill="black"/>
</g>
<defs>
<filter id="filter0_d_1_8" x="-5" y="-1" width="1090" height="1090" filterUnits="userSpaceOnUse" color-interpolation-filters="sRGB">
<feFlood flood-opacity="0" result="BackgroundImageFix"/>
<feColorMatrix in="SourceAlpha" type="matrix" values="0 0 0 0 0 0 0 0 0 0 0 0 0 0 0 0 0 0 127 0" result="hardAlpha"/>
<feOffset dy="4"/>
<feGaussianBlur stdDeviation="2"/>
<feComposite in2="hardAlpha" operator="out"/>
<feColorMatrix type="matrix" values="0 0 0 0 0 0 0 0 0 0 0 0 0 0 0 0 0 0 0.25 0"/>
<feBlend mode="normal" in2="BackgroundImageFix" result="effect1_dropShadow_1_8"/>
<feBlend mode="normal" in="SourceGraphic" in2="effect1_dropShadow_1_8" result="shape"/>
</filter>
<radialGradient id="paint0_radial_1_8" cx="0" cy="0" r="1" gradientUnits="userSpaceOnUse" gradientTransform="translate(547 558.5) rotate(135) scale(881.055)">
<stop stop-color="#FFD9C2"/>
<stop offset="0.505208" stop-color="#D8946C"/>
<stop offset="0.776042" stop-color="#A77151"/>
<stop offset="1" stop-opacity="0.24"/>
</radialGradient>
</defs>
</svg>
